<?xml version="1.0" encoding="utf-8"?>
<!-- Generator: Adobe Illustrator 18.1.1, SVG Export Plug-In . SVG Version: 6.00 Build 0)  -->
<svg version="1.1" id="Layer_1" xmlns="http://www.w3.org/2000/svg" xmlns:xlink="http://www.w3.org/1999/xlink" x="0px" y="0px"
	 viewBox="0 0 1064.2 425.3" enable-background="new 0 0 1064.2 425.3" xml:space="preserve">
<polygon fill="#FFFFFF" points="214,248.9 207.7,248.9 209.4,170.8 211.7,168.8 211.7,174.7 "/>
<path fill="#FFFFFF" d="M315.3,124c-40.4-14.8-115.7-17-104.8,39.8c0.4,1.8-0.2-0.1,0.4,1.8c6-8.6,23.1-40.9,72.6-33.2
	c-53.3,8.5-68.5,41.5-68.5,41.5C235.8,201.5,274.6,191.2,315.3,124z"/>
<path fill="#FFFFFF" d="M133.8,162.8c27.8-10.2,79.6-11.7,72.1,27.4c-0.2,1.3,0.1-0.1-0.2,1.3c-4.1-5.9-15.9-28.1-49.9-22.8
	c36.6,5.9,47.2,28.6,47.2,28.6C188.5,216.2,161.8,209.1,133.8,162.8z"/>
<path fill="#FFFFFF" d="M217,417.4c-112.7,0-204.4-91.7-204.4-204.4C12.5,100.3,104.2,8.6,217,8.6S421.4,100.3,421.4,213
	C421.4,325.7,329.7,417.4,217,417.4z M217,21.5C111.4,21.5,25.5,107.4,25.5,213c0,105.6,85.9,191.5,191.5,191.5
	c105.6,0,191.5-85.9,191.5-191.5C408.5,107.4,322.6,21.5,217,21.5z"/>
<path fill="#FFFFFF" d="M399.6,292.6c0,0-73.3,118.3-182.6,118.3c-119.4,0-180.7-118.6-180.7-118.6s75.7-41.3,185-41.3
	S399.6,292.6,399.6,292.6z"/>
<g>
	<path fill="#FFFFFF" d="M566.5,192.6H477l75.2-87.3h-74.7v-4.4h84.2l-75,87.5h79.8V192.6z"/>
	<path fill="#FFFFFF" d="M674.6,163.9c-3.5,9.9-9.3,17.8-17.9,23.8c-8.6,6-18.1,9-28.5,9c-13.7,0-25.4-4.8-35.1-14.3
		c-9.5-9.7-14.3-21.4-14.3-35.1c0-13.7,4.8-25.4,14.3-34.9c9.7-9.7,21.4-14.5,35.1-14.5c21.2,0,39.3,12.8,46.5,32.8h-4.8l-0.2-0.2
		h-83.1c-2.2,5.3-3.3,11-3.3,16.8c0,12.6,4.4,23.2,13,31.8c8.6,8.6,19.2,13,31.8,13c9.1,0,17.6-2.6,25.1-7.7
		c7.7-5.1,13.2-11.9,16.6-20.5H674.6z M667.6,125.8c-8.1-14.6-22.7-23.4-39.5-23.4c-16.6,0-31.5,8.8-39.3,23.4H667.6z"/>
	<path fill="#FFFFFF" d="M765.2,112.5c-7.5-6.8-16.1-10.1-26.2-10.1c-11,0-20.1,3.8-27.6,11.3c-7.5,7.5-11.2,16.8-11.2,27.8v51.6
		h-4.6v-91.9h4.6V122c7.3-15.2,22-24.2,38.8-24.2c9.7,0,18.5,2.9,26.2,8.8V112.5z"/>
	<path fill="#FFFFFF" d="M861.8,182.4c-9.5,9.5-21.2,14.3-35.1,14.3c-13.7,0-25.4-4.8-35.1-14.3c-9.5-9.7-14.3-21.4-14.3-35.1
		c0-13.7,4.8-25.4,14.3-34.9c9.7-9.7,21.4-14.5,35.1-14.5c13.7,0,25.4,4.8,35,14.5c9.7,9.5,14.5,21.2,14.5,34.9
		C876.1,161.1,871.3,172.8,861.8,182.4z M858.3,115.6c-8.6-8.8-19.2-13.2-31.7-13.2c-12.6,0-23.2,4.4-31.8,13
		c-8.6,8.6-13,19.2-13,31.8s4.4,23.2,13,31.8c8.6,8.6,19.2,13,31.8,13c12.6,0,23.2-4.4,31.8-13c8.6-8.6,13-19.2,13-31.8
		C871.5,134.8,867.1,124.2,858.3,115.6z"/>
	<path fill="#FFFFFF" d="M646.3,290.2c0,11.5-4.4,21.6-13,30c-8.6,8.4-18.8,12.6-30.6,12.6c-9.3,0-17.9-2.7-25.4-8.2
		s-12.8-12.8-15.7-21.8c-2.9,9-8.2,16.3-15.7,21.8c-7.5,5.5-16.1,8.2-25.4,8.2c-11.7,0-21.6-3.8-29.8-11.3
		c-8.1-7.7-12.4-17.4-13.4-29.1H477v-54.3h4.6v51.1c0,10.8,3.8,20.1,11.3,27.8c7.5,7.5,16.6,11.3,27.4,11.3c11,0,20.1-3.8,27.6-11.3
		c7.5-7.5,11.3-16.8,11.3-27.8v-51.1h4.6v51.1c0,10.8,3.8,20.1,11.3,27.8c7.5,7.5,16.6,11.3,27.4,11.3c11,0,20.1-3.8,27.6-11.3
		c7.5-7.5,11.3-16.8,11.3-27.8v-51.1h4.6V290.2z"/>
	<path fill="#FFFFFF" d="M769.4,330.3h-4.6v-24.9c-8.2,17.6-25.6,28.5-44.8,28.5c-13.7,0-25.4-4.8-35.1-14.3
		c-9.5-9.7-14.3-21.4-14.3-35.1s4.8-25.4,14.3-34.9c9.7-9.7,21.4-14.5,35.1-14.5c19.2,0,36.6,11,44.8,28.5v-25.1h4.6V330.3z
		 M763.9,275.6c-2-10.4-7.1-19-15.6-25.8c-8.2-6.8-17.8-10.1-28.4-10.1c-12.6,0-23.2,4.4-31.8,13c-8.6,8.6-13,19.2-13,31.8
		c0,12.6,4.4,23.2,13,31.8c8.6,8.6,19.2,13,31.8,13c12.3,0,22.9-4.4,31.7-13c8.8-8.8,13.2-19.4,13.2-31.7
		C764.8,282,764.4,278.9,763.9,275.6z"/>
	<path fill="#FFFFFF" d="M854.2,327.2c-6.4,4.9-13.7,7.3-22,7.3c-10.6,0-19.4-3.1-26.3-9.3c-7-6.4-10.4-14.8-10.4-25.4v-0.2h4.6v0.2
		c0,18.8,13.2,30.2,32.2,30.2c6.8,0,13-2,18.7-6c6-4.4,9.1-9.9,9.1-16.5c0-12.6-9-20.5-26.7-23.2c-5.3-0.9-9-1.5-10.8-2
		c-3.5-0.9-7-2.4-10.3-4.4c-6.8-4.2-9.9-10.2-9.7-18.1c0.2-7.5,3.7-13.7,10.2-18.7c4.6-3.5,9.5-5.3,15.2-5.7
		c11.5-0.7,20.7,4.2,27.6,14.6h-5.9c-5.3-7.5-12.4-11-21.4-10.3c-4.6,0.4-9,2-13,4.9c-6.4,4.6-9.1,10.3-8.6,17.2
		c0.9,9.7,9.5,15.7,26,17.9c21.2,2.9,31.8,12.1,31.8,27.5C864.7,315.3,861.2,321.9,854.2,327.2z"/>
	<path fill="#FFFFFF" d="M944.1,243h-32.2v87.7h-4.6V243H875v-4.6h32.4v-15.6h4.6v15.6h32.2V243z"/>
	<path fill="#FFFFFF" d="M1050.7,301.2c-3.5,9.9-9.3,17.8-17.9,23.8c-8.6,6-18.1,9-28.5,9c-13.7,0-25.4-4.8-35.1-14.3
		c-9.5-9.7-14.3-21.4-14.3-35.1s4.8-25.4,14.3-34.9c9.7-9.7,21.4-14.5,35.1-14.5c21.2,0,39.3,12.8,46.5,32.8h-4.8l-0.2-0.2h-83.1
		c-2.2,5.3-3.3,11-3.3,16.8c0,12.6,4.4,23.2,13,31.8c8.6,8.6,19.2,13,31.8,13c9.1,0,17.6-2.6,25.1-7.7c7.7-5.1,13.2-11.9,16.6-20.5
		H1050.7z M1043.7,263.1c-8.1-14.6-22.7-23.4-39.5-23.4c-16.6,0-31.5,8.8-39.3,23.4H1043.7z"/>
</g>
</svg>
