<?xml version="1.0" encoding="utf-8"?>
<!-- Generator: Adobe Illustrator 18.1.1, SVG Export Plug-In . SVG Version: 6.00 Build 0)  -->
<svg version="1.1" id="Layer_1" xmlns="http://www.w3.org/2000/svg" xmlns:xlink="http://www.w3.org/1999/xlink" x="0px" y="0px"
	 viewBox="0 0 60.3 41.5" enable-background="new 0 0 60.3 41.5" xml:space="preserve">
<g>
	<g>
		<path fill="#FFFFFF" d="M1.5,1c2.7,14.9,13.6,28.1,31.1,25.9C31.2,8.2,17,0.6,1.5,1z M4.7,3.5c13,4,22.7,12.1,25.7,21.2
			C20.2,13.5,17,11,4.7,3.5z"/>
	</g>
	<g>
		<path fill="#FFFFFF" d="M34.1,26.3c8.2-0.8,15.9-6.1,15.5-15.7C39.4,10.5,34.6,17.9,34.1,26.3z M35.8,24.7
			c4.1-8.3,6.2-10.4,12.4-13C42.7,15.9,41,17.6,35.8,24.7z"/>
	</g>
	<g>
		<path fill="#FFFFFF" d="M13.5,40.2c8.1,1.4,16.9-1.8,19-11.1C22.7,26.3,16.2,32.2,13.5,40.2z M15.6,39.1c6.1-7,8.6-8.4,15.3-9.3
			C24.5,32.3,22.4,33.5,15.6,39.1z"/>
	</g>
	<g>
		<path fill="#FFFFFF" d="M37.9,33.7H34l3.3-3.9H34v-0.2h3.7l-3.3,3.9h3.5V33.7z"/>
		<path fill="#FFFFFF" d="M42.7,32.5c-0.2,0.4-0.4,0.8-0.8,1c-0.4,0.3-0.8,0.4-1.3,0.4c-0.6,0-1.1-0.2-1.6-0.6
			c-0.4-0.4-0.6-0.9-0.6-1.6c0-0.6,0.2-1.1,0.6-1.5c0.4-0.4,0.9-0.6,1.6-0.6c0.9,0,1.7,0.6,2.1,1.4h-0.2l0,0h-3.7
			c-0.1,0.2-0.1,0.5-0.1,0.7c0,0.6,0.2,1,0.6,1.4c0.4,0.4,0.8,0.6,1.4,0.6c0.4,0,0.8-0.1,1.1-0.3c0.3-0.2,0.6-0.5,0.7-0.9H42.7z
			 M42.4,30.8c-0.4-0.6-1-1-1.7-1c-0.7,0-1.4,0.4-1.7,1H42.4z"/>
		<path fill="#FFFFFF" d="M46.7,30.2c-0.3-0.3-0.7-0.4-1.2-0.4c-0.5,0-0.9,0.2-1.2,0.5c-0.3,0.3-0.5,0.7-0.5,1.2v2.3h-0.2v-4.1h0.2
			v0.9c0.3-0.7,1-1.1,1.7-1.1c0.4,0,0.8,0.1,1.2,0.4V30.2z"/>
		<path fill="#FFFFFF" d="M51,33.3c-0.4,0.4-0.9,0.6-1.6,0.6c-0.6,0-1.1-0.2-1.6-0.6c-0.4-0.4-0.6-0.9-0.6-1.6
			c0-0.6,0.2-1.1,0.6-1.5c0.4-0.4,0.9-0.6,1.6-0.6c0.6,0,1.1,0.2,1.5,0.6c0.4,0.4,0.6,0.9,0.6,1.5C51.6,32.3,51.4,32.9,51,33.3z
			 M50.8,30.3c-0.4-0.4-0.8-0.6-1.4-0.6c-0.6,0-1,0.2-1.4,0.6c-0.4,0.4-0.6,0.8-0.6,1.4c0,0.6,0.2,1,0.6,1.4
			c0.4,0.4,0.8,0.6,1.4,0.6c0.6,0,1-0.2,1.4-0.6c0.4-0.4,0.6-0.8,0.6-1.4C51.4,31.2,51.2,30.7,50.8,30.3z"/>
		<path fill="#FFFFFF" d="M41.5,38c0,0.5-0.2,1-0.6,1.3c-0.4,0.4-0.8,0.6-1.3,0.6c-0.4,0-0.8-0.1-1.1-0.4s-0.6-0.6-0.7-1
			c-0.1,0.4-0.4,0.7-0.7,1c-0.3,0.2-0.7,0.4-1.1,0.4c-0.5,0-1-0.2-1.3-0.5c-0.4-0.3-0.5-0.8-0.6-1.3h0v-2.4h0.2V38
			c0,0.5,0.2,0.9,0.5,1.2c0.3,0.3,0.7,0.5,1.2,0.5c0.5,0,0.9-0.2,1.2-0.5c0.3-0.3,0.5-0.7,0.5-1.2v-2.3h0.2V38
			c0,0.5,0.2,0.9,0.5,1.2c0.3,0.3,0.7,0.5,1.2,0.5c0.5,0,0.9-0.2,1.2-0.5c0.3-0.3,0.5-0.7,0.5-1.2v-2.3h0.2V38z"/>
		<path fill="#FFFFFF" d="M46.9,39.8h-0.2v-1.1c-0.4,0.8-1.1,1.3-2,1.3c-0.6,0-1.1-0.2-1.6-0.6c-0.4-0.4-0.6-0.9-0.6-1.6
			s0.2-1.1,0.6-1.5c0.4-0.4,0.9-0.6,1.6-0.6c0.8,0,1.6,0.5,2,1.3v-1.1h0.2V39.8z M46.7,37.4c-0.1-0.5-0.3-0.8-0.7-1.1
			c-0.4-0.3-0.8-0.4-1.3-0.4c-0.6,0-1,0.2-1.4,0.6c-0.4,0.4-0.6,0.8-0.6,1.4s0.2,1,0.6,1.4c0.4,0.4,0.8,0.6,1.4,0.6
			c0.5,0,1-0.2,1.4-0.6c0.4-0.4,0.6-0.9,0.6-1.4C46.7,37.7,46.7,37.5,46.7,37.4z"/>
		<path fill="#FFFFFF" d="M50.6,39.7c-0.3,0.2-0.6,0.3-1,0.3c-0.5,0-0.9-0.1-1.2-0.4c-0.3-0.3-0.5-0.7-0.5-1.1v0h0.2v0
			c0,0.8,0.6,1.3,1.4,1.3c0.3,0,0.6-0.1,0.8-0.3c0.3-0.2,0.4-0.4,0.4-0.7c0-0.6-0.4-0.9-1.2-1c-0.2,0-0.4-0.1-0.5-0.1
			c-0.2,0-0.3-0.1-0.5-0.2c-0.3-0.2-0.4-0.5-0.4-0.8c0-0.3,0.2-0.6,0.5-0.8c0.2-0.2,0.4-0.2,0.7-0.3c0.5,0,0.9,0.2,1.2,0.6h-0.3
			c-0.2-0.3-0.5-0.5-0.9-0.5c-0.2,0-0.4,0.1-0.6,0.2c-0.3,0.2-0.4,0.5-0.4,0.8c0,0.4,0.4,0.7,1.1,0.8c0.9,0.1,1.4,0.5,1.4,1.2
			C51.1,39.1,50.9,39.4,50.6,39.7z"/>
		<path fill="#FFFFFF" d="M54.6,36h-1.4v3.9H53V36h-1.4v-0.2H53v-0.7h0.2v0.7h1.4V36z"/>
		<path fill="#FFFFFF" d="M59.3,38.5c-0.2,0.4-0.4,0.8-0.8,1c-0.4,0.3-0.8,0.4-1.3,0.4c-0.6,0-1.1-0.2-1.6-0.6
			c-0.4-0.4-0.6-0.9-0.6-1.6s0.2-1.1,0.6-1.5c0.4-0.4,0.9-0.6,1.6-0.6c0.9,0,1.7,0.6,2.1,1.4h-0.2l0,0h-3.7
			c-0.1,0.2-0.1,0.5-0.1,0.7c0,0.6,0.2,1,0.6,1.4c0.4,0.4,0.8,0.6,1.4,0.6c0.4,0,0.8-0.1,1.1-0.3c0.3-0.2,0.6-0.5,0.7-0.9H59.3z
			 M59,36.8c-0.4-0.6-1-1-1.7-1c-0.7,0-1.4,0.4-1.7,1H59z"/>
	</g>
</g>
</svg>
