<?xml version="1.0" encoding="utf-8"?>
<!-- Generator: Adobe Illustrator 18.1.1, SVG Export Plug-In . SVG Version: 6.00 Build 0)  -->
<svg version="1.1" id="Layer_1" xmlns="http://www.w3.org/2000/svg" xmlns:xlink="http://www.w3.org/1999/xlink" x="0px" y="0px"
	 viewBox="0 0 128.8 41.5" enable-background="new 0 0 128.8 41.5" xml:space="preserve">
<g>
	<path fill="#FFFFFF" d="M1.5,1c2.7,14.9,13.6,28.1,31.1,25.9C31.2,8.2,17,0.6,1.5,1z M4.7,3.5c13,4,22.7,12.1,25.7,21.2
		C20.2,13.5,17,11,4.7,3.5z"/>
</g>
<g>
	<path fill="#FFFFFF" d="M34.1,26.3c8.2-0.8,15.9-6.1,15.5-15.7C39.4,10.5,34.6,17.9,34.1,26.3z M35.8,24.7
		c4.1-8.3,6.2-10.4,12.4-13C42.7,15.9,41,17.6,35.8,24.7z"/>
</g>
<g>
	<path fill="#FFFFFF" d="M13.5,40.2c8.1,1.4,16.9-1.8,19-11.1C22.7,26.3,16.2,32.2,13.5,40.2z M15.6,39.1c6.1-7,8.6-8.4,15.3-9.3
		C24.5,32.3,22.4,33.5,15.6,39.1z"/>
</g>
<g>
	<path fill="#FFFFFF" d="M67.3,22.4h-11l9.3-10.8h-9.2v-0.5h10.4l-9.3,10.8h9.8V22.4z"/>
	<path fill="#FFFFFF" d="M80.6,18.8c-0.4,1.2-1.2,2.2-2.2,2.9c-1.1,0.7-2.2,1.1-3.5,1.1c-1.7,0-3.1-0.6-4.3-1.8
		c-1.2-1.2-1.8-2.6-1.8-4.3c0-1.7,0.6-3.1,1.8-4.3c1.2-1.2,2.6-1.8,4.3-1.8c2.6,0,4.9,1.6,5.7,4H80l0,0H69.8
		c-0.3,0.7-0.4,1.4-0.4,2.1c0,1.6,0.5,2.9,1.6,3.9c1.1,1.1,2.4,1.6,3.9,1.6c1.1,0,2.2-0.3,3.1-0.9c0.9-0.6,1.6-1.5,2.1-2.5H80.6z
		 M79.8,14.1c-1-1.8-2.8-2.9-4.9-2.9c-2.1,0-3.9,1.1-4.9,2.9H79.8z"/>
	<path fill="#FFFFFF" d="M91.8,12.5c-0.9-0.8-2-1.2-3.2-1.2c-1.4,0-2.5,0.5-3.4,1.4s-1.4,2.1-1.4,3.4v6.4h-0.6V11.1h0.6v2.6
		c0.9-1.9,2.7-3,4.8-3c1.2,0,2.3,0.4,3.2,1.1V12.5z"/>
	<path fill="#FFFFFF" d="M103.7,21.1c-1.2,1.2-2.6,1.8-4.3,1.8c-1.7,0-3.1-0.6-4.3-1.8c-1.2-1.2-1.8-2.6-1.8-4.3
		c0-1.7,0.6-3.1,1.8-4.3c1.2-1.2,2.6-1.8,4.3-1.8c1.7,0,3.1,0.6,4.3,1.8c1.2,1.2,1.8,2.6,1.8,4.3C105.5,18.5,104.9,19.9,103.7,21.1z
		 M103.3,12.9c-1.1-1.1-2.4-1.6-3.9-1.6c-1.6,0-2.9,0.5-3.9,1.6c-1.1,1.1-1.6,2.4-1.6,3.9s0.5,2.9,1.6,3.9c1.1,1.1,2.4,1.6,3.9,1.6
		c1.6,0,2.9-0.5,3.9-1.6c1.1-1.1,1.6-2.4,1.6-3.9C104.9,15.2,104.4,13.9,103.3,12.9z"/>
	<path fill="#FFFFFF" d="M77.2,34.4c0,1.4-0.5,2.7-1.6,3.7c-1.1,1-2.3,1.6-3.8,1.6c-1.2,0-2.2-0.3-3.1-1c-0.9-0.7-1.6-1.6-1.9-2.7
		c-0.4,1.1-1,2-1.9,2.7c-0.9,0.7-2,1-3.1,1c-1.4,0-2.7-0.5-3.7-1.4c-1-0.9-1.5-2.1-1.6-3.6h0V28h0.6v6.3c0,1.3,0.5,2.5,1.4,3.4
		c0.9,0.9,2.1,1.4,3.4,1.4c1.4,0,2.5-0.5,3.4-1.4c0.9-0.9,1.4-2.1,1.4-3.4V28H67v6.3c0,1.3,0.5,2.5,1.4,3.4c0.9,0.9,2.1,1.4,3.4,1.4
		c1.4,0,2.5-0.5,3.4-1.4c0.9-0.9,1.4-2.1,1.4-3.4V28h0.6V34.4z"/>
	<path fill="#FFFFFF" d="M92.4,39.4h-0.6v-3.1c-1,2.2-3.2,3.5-5.5,3.5c-1.7,0-3.1-0.6-4.3-1.8c-1.2-1.2-1.8-2.6-1.8-4.3
		s0.6-3.1,1.8-4.3c1.2-1.2,2.6-1.8,4.3-1.8c2.4,0,4.5,1.4,5.5,3.5V28h0.6V39.4z M91.7,32.6c-0.2-1.3-0.9-2.3-1.9-3.2
		c-1-0.8-2.2-1.2-3.5-1.2c-1.6,0-2.9,0.5-3.9,1.6c-1.1,1.1-1.6,2.4-1.6,3.9s0.5,2.9,1.6,3.9c1.1,1.1,2.4,1.6,3.9,1.6
		c1.5,0,2.8-0.5,3.9-1.6c1.1-1.1,1.6-2.4,1.6-3.9C91.8,33.4,91.8,33,91.7,32.6z"/>
	<path fill="#FFFFFF" d="M102.9,39c-0.8,0.6-1.7,0.9-2.7,0.9c-1.3,0-2.4-0.4-3.3-1.2c-0.9-0.8-1.3-1.8-1.3-3.1v0h0.6v0
		c0,2.3,1.6,3.7,4,3.7c0.8,0,1.6-0.2,2.3-0.7c0.7-0.5,1.1-1.2,1.1-2c0-1.6-1.1-2.5-3.3-2.9c-0.7-0.1-1.1-0.2-1.3-0.2
		c-0.4-0.1-0.9-0.3-1.3-0.5c-0.8-0.5-1.2-1.3-1.2-2.2c0-0.9,0.5-1.7,1.3-2.3c0.6-0.4,1.2-0.7,1.9-0.7c1.4-0.1,2.6,0.5,3.4,1.8h-0.7
		c-0.7-0.9-1.5-1.4-2.6-1.3c-0.6,0-1.1,0.2-1.6,0.6c-0.8,0.6-1.1,1.3-1.1,2.1c0.1,1.2,1.2,1.9,3.2,2.2c2.6,0.4,3.9,1.5,3.9,3.4
		C104.1,37.5,103.7,38.3,102.9,39z"/>
	<path fill="#FFFFFF" d="M113.9,28.6h-4v10.8h-0.6V28.6h-4V28h4v-1.9h0.6V28h4V28.6z"/>
	<path fill="#FFFFFF" d="M127.1,35.8c-0.4,1.2-1.2,2.2-2.2,2.9c-1.1,0.7-2.2,1.1-3.5,1.1c-1.7,0-3.1-0.6-4.3-1.8
		c-1.2-1.2-1.8-2.6-1.8-4.3s0.6-3.1,1.8-4.3c1.2-1.2,2.6-1.8,4.3-1.8c2.6,0,4.9,1.6,5.7,4h-0.6l0,0h-10.3c-0.3,0.7-0.4,1.4-0.4,2.1
		c0,1.6,0.5,2.9,1.6,3.9c1.1,1.1,2.4,1.6,3.9,1.6c1.1,0,2.2-0.3,3.1-0.9c0.9-0.6,1.6-1.5,2.1-2.5H127.1z M126.2,31.1
		c-1-1.8-2.8-2.9-4.9-2.9c-2.1,0-3.9,1.1-4.9,2.9H126.2z"/>
</g>
</svg>
