<?xml version="1.0" encoding="utf-8"?>
<!-- Generator: Adobe Illustrator 18.1.1, SVG Export Plug-In . SVG Version: 6.00 Build 0)  -->
<svg version="1.1" id="Layer_1" xmlns="http://www.w3.org/2000/svg" xmlns:xlink="http://www.w3.org/1999/xlink" x="0px" y="0px"
	 viewBox="0 0 423 423" enable-background="new 0 0 423 423" xml:space="preserve">
<polygon fill="#FFFFFF" points="209.4,247 203.1,247 204.8,168.9 207.1,166.9 207.1,172.8 "/>
<path fill="#FFFFFF" d="M310.7,122.1c-40.4-14.8-115.7-17-104.8,39.8c0.4,1.8-0.2-0.1,0.4,1.8c6-8.6,23.1-40.9,72.6-33.2
	c-53.3,8.5-68.5,41.5-68.5,41.5C231.2,199.6,270,189.3,310.7,122.1z"/>
<path fill="#FFFFFF" d="M129.2,161c27.8-10.2,79.6-11.7,72.1,27.4c-0.2,1.3,0.1-0.1-0.2,1.3c-4.1-5.9-15.9-28.1-49.9-22.8
	c36.6,5.9,47.2,28.6,47.2,28.6C183.9,214.3,157.2,207.2,129.2,161z"/>
<g>
	<path fill="#FFFFFF" d="M212.4,415.5C99.6,415.5,7.9,323.8,7.9,211.1C7.9,98.4,99.6,6.7,212.4,6.7s204.4,91.7,204.4,204.4
		C416.8,323.8,325.1,415.5,212.4,415.5z M212.4,19.6c-105.6,0-191.5,85.9-191.5,191.5c0,105.6,85.9,191.5,191.5,191.5
		c105.6,0,191.5-85.9,191.5-191.5C403.9,105.5,318,19.6,212.4,19.6z"/>
</g>
<path fill="#FFFFFF" d="M395,290.7c0,0-73.3,118.3-182.6,118.3c-119.4,0-180.7-118.6-180.7-118.6s75.7-41.3,185-41.3
	S395,290.7,395,290.7z"/>
<g>
	<path fill="#95C11F" d="M172.1,316.5h-32.7l27.5-31.9h-27.3V283h30.8l-27.5,32h29.2V316.5z"/>
	<path fill="#95C11F" d="M211.6,306c-1.3,3.6-3.4,6.5-6.6,8.7c-3.1,2.2-6.6,3.3-10.4,3.3c-5,0-9.3-1.7-12.9-5.2
		c-3.5-3.6-5.2-7.8-5.2-12.9s1.7-9.3,5.2-12.8c3.6-3.6,7.8-5.3,12.9-5.3c7.8,0,14.4,4.7,17,12h-1.7l-0.1-0.1h-30.4
		c-0.8,1.9-1.2,4-1.2,6.2c0,4.6,1.6,8.5,4.8,11.7c3.1,3.1,7,4.8,11.7,4.8c3.3,0,6.4-0.9,9.2-2.8c2.8-1.9,4.8-4.4,6.1-7.5H211.6z
		 M209.1,292.1c-2.9-5.4-8.3-8.6-14.5-8.6c-6.1,0-11.5,3.2-14.4,8.6H209.1z"/>
	<path fill="#95C11F" d="M244.8,287.2c-2.7-2.5-5.9-3.7-9.6-3.7c-4,0-7.4,1.4-10.1,4.2c-2.7,2.7-4.1,6.2-4.1,10.2v18.9h-1.7v-33.6
		h1.7v7.6c2.7-5.6,8-8.8,14.2-8.8c3.6,0,6.8,1.1,9.6,3.2V287.2z"/>
	<path fill="#95C11F" d="M280.2,312.8c-3.5,3.5-7.8,5.2-12.9,5.2c-5,0-9.3-1.7-12.9-5.2c-3.5-3.6-5.2-7.8-5.2-12.9s1.7-9.3,5.2-12.8
		c3.6-3.6,7.8-5.3,12.9-5.3c5,0,9.3,1.7,12.8,5.3c3.6,3.5,5.3,7.8,5.3,12.8C285.4,305,283.6,309.3,280.2,312.8z M278.9,288.3
		c-3.1-3.2-7-4.8-11.6-4.8c-4.6,0-8.5,1.6-11.7,4.8c-3.1,3.1-4.8,7-4.8,11.7s1.6,8.5,4.8,11.7c3.1,3.1,7,4.8,11.7,4.8
		c4.6,0,8.5-1.6,11.7-4.8c3.1-3.1,4.8-7,4.8-11.7C283.7,295.4,282.1,291.5,278.9,288.3z"/>
</g>
<g>
	<path fill="#95C11F" d="M169.3,352.2c0,4.2-1.6,7.9-4.8,11c-3.1,3.1-6.9,4.6-11.2,4.6c-3.4,0-6.6-1-9.3-3c-2.7-2-4.7-4.7-5.8-8
		c-1.1,3.3-3,6-5.8,8c-2.7,2-5.9,3-9.3,3c-4.3,0-7.9-1.4-10.9-4.1c-2.9-2.8-4.6-6.4-4.9-10.7h-0.1v-19.9h1.7v18.7
		c0,4,1.4,7.4,4.2,10.2c2.7,2.7,6.1,4.2,10,4.2c4,0,7.4-1.4,10.1-4.2c2.7-2.7,4.2-6.2,4.2-10.2v-18.7h1.7v18.7c0,4,1.4,7.4,4.2,10.2
		c2.7,2.7,6.1,4.2,10,4.2c4,0,7.4-1.4,10.1-4.2c2.7-2.7,4.2-6.2,4.2-10.2v-18.7h1.7V352.2z"/>
	<path fill="#95C11F" d="M214.4,366.9h-1.7v-9.1c-3,6.4-9.4,10.4-16.4,10.4c-5,0-9.3-1.7-12.9-5.2c-3.5-3.6-5.2-7.8-5.2-12.9
		c0-5,1.7-9.3,5.2-12.8c3.6-3.6,7.8-5.3,12.9-5.3c7,0,13.4,4,16.4,10.4v-9.2h1.7V366.9z M212.4,346.9c-0.7-3.8-2.6-7-5.7-9.4
		c-3-2.5-6.5-3.7-10.4-3.7c-4.6,0-8.5,1.6-11.7,4.8c-3.1,3.1-4.8,7-4.8,11.7c0,4.6,1.6,8.5,4.8,11.7c3.1,3.1,7,4.8,11.7,4.8
		c4.5,0,8.4-1.6,11.6-4.8c3.2-3.2,4.8-7.1,4.8-11.6C212.7,349.2,212.6,348.1,212.4,346.9z"/>
	<path fill="#95C11F" d="M245.4,365.8c-2.3,1.8-5,2.7-8,2.7c-3.9,0-7.1-1.1-9.6-3.4c-2.5-2.3-3.8-5.4-3.8-9.3v-0.1h1.7v0.1
		c0,6.9,4.8,11,11.8,11c2.5,0,4.8-0.7,6.8-2.2c2.2-1.6,3.3-3.6,3.3-6c0-4.6-3.3-7.5-9.8-8.5c-1.9-0.3-3.3-0.5-4-0.7
		c-1.3-0.3-2.5-0.9-3.8-1.6c-2.5-1.5-3.6-3.7-3.5-6.6c0.1-2.7,1.3-5,3.7-6.8c1.7-1.3,3.5-1.9,5.6-2.1c4.2-0.3,7.6,1.5,10.1,5.4h-2.1
		c-1.9-2.7-4.6-4-7.8-3.8c-1.7,0.1-3.3,0.7-4.8,1.8c-2.3,1.7-3.3,3.8-3.1,6.3c0.3,3.6,3.5,5.8,9.5,6.6c7.8,1.1,11.7,4.4,11.7,10
		C249.3,361.4,248,363.8,245.4,365.8z"/>
	<path fill="#95C11F" d="M278.3,335h-11.8V367h-1.7V335H253v-1.7h11.9v-5.7h1.7v5.7h11.8V335z"/>
	<path fill="#95C11F" d="M317.3,356.3c-1.3,3.6-3.4,6.5-6.6,8.7c-3.1,2.2-6.6,3.3-10.4,3.3c-5,0-9.3-1.7-12.9-5.2
		c-3.5-3.6-5.2-7.8-5.2-12.9c0-5,1.7-9.3,5.2-12.8c3.6-3.6,7.8-5.3,12.9-5.3c7.8,0,14.4,4.7,17,12h-1.7l-0.1-0.1h-30.4
		c-0.8,1.9-1.2,4-1.2,6.2c0,4.6,1.6,8.5,4.8,11.7c3.1,3.1,7,4.8,11.7,4.8c3.3,0,6.4-0.9,9.2-2.8c2.8-1.9,4.8-4.4,6.1-7.5H317.3z
		 M314.8,342.3c-2.9-5.4-8.3-8.6-14.5-8.6c-6.1,0-11.5,3.2-14.4,8.6H314.8z"/>
</g>
</svg>
